<?xml version="1.0" encoding="utf-8"?>
<!-- Generator: Adobe Illustrator 16.0.0, SVG Export Plug-In . SVG Version: 6.00 Build 0)  -->
<!DOCTYPE svg PUBLIC "-//W3C//DTD SVG 1.1//EN" "http://www.w3.org/Graphics/SVG/1.1/DTD/svg11.dtd">
<svg version="1.1" xmlns="http://www.w3.org/2000/svg" xmlns:xlink="http://www.w3.org/1999/xlink" x="0px" y="0px" width="1500px"
	 height="1500px" viewBox="0 0 1500 1500" enable-background="new 0 0 1500 1500" xml:space="preserve">
<g id="Layer_1">
</g>
<g id="Layer_2">
	<rect fill="#F9F9FA" stroke="#000000" stroke-miterlimit="10" width="1500" height="1500"/>
	<g>
		<g>
			<path fill="#53A246" d="M729.9,518.267c0,0-7.021-75.668,55.544-119.109c33.621-23.338,58.043-36.584,73.438-43.847
				c7.945-3.744,18.876,0.306,18.135,6.722l-2.795,24.275c0,0,30.246-18.192,94.459-31.626c25.528-5.344,43.889-8.561,56.738-10.499
				c11.263-1.698,20.711,5.676,16.172,12.668l-4.545,7.009l134.609-39.85c0,0-9.277,84.192-40.676,131.886
				c-31.398,47.694-61.527,62.807-61.527,62.807l44.854,1.753c11.707,0.458,18.548,9.114,12.046,15.542
				c-19.795,19.566-74.545,54.114-222.012,74.32C690.114,639.673,729.9,518.267,729.9,518.267z"/>
			<path opacity="0.25" fill="#53A246" d="M904.342,610.319c147.467-20.206,202.217-54.753,222.012-74.32
				c6.502-6.428-0.339-15.084-12.046-15.542l-44.854-1.753c0,0,30.129-15.112,61.527-62.807
				c31.398-47.694,40.676-131.886,40.676-131.886s-181.89,177.515-407.661,275.444C789.834,613.096,832.923,620.105,904.342,610.319
				z"/>
			<g>
				<path fill="#AB3687" d="M815.591,1017.145c29.701,43.477,0.24,94.568-65.804,114.117
					c-66.04,19.549-143.653,0.158-173.353-43.314c-29.7-43.469-0.242-94.56,65.799-114.109
					C708.272,954.285,785.89,973.676,815.591,1017.145z"/>
				<path opacity="0.25" fill="#AB3687" d="M799.939,1000.041c1.67,1.904,3.212,3.879,4.606,5.924
					c22.269,32.59,0.188,70.891-49.331,85.551c-49.509,14.66-107.7,0.116-129.966-32.471c-22.267-32.59-0.183-70.896,49.331-85.549
					c15.23-4.516,31.282-6.238,46.854-5.544c-25.806-3.378-53.377-1.758-79.201,5.886c-66.041,19.55-95.499,70.641-65.799,114.109
					c29.7,43.473,107.313,62.863,173.353,43.314c66.044-19.549,95.505-70.641,65.804-114.117
					C811.331,1010.916,805.988,1005.244,799.939,1000.041z"/>
			</g>
			<g>
				<path fill="#AB3687" d="M1051.391,798.976c31.914,46.726,0.256,101.631-70.725,122.646
					c-70.974,21.015-154.388,0.171-186.31-46.547c-31.917-46.725-0.261-101.633,70.723-122.64
					C936.053,731.415,1019.465,752.259,1051.391,798.976z"/>
				<path opacity="0.25" fill="#AB3687" d="M1034.564,780.589c1.797,2.046,3.457,4.175,4.957,6.372
					c23.933,35.022,0.188,76.193-53.016,91.945c-53.222,15.754-115.755,0.129-139.688-34.904
					c-23.933-35.021-0.196-76.192,53.016-91.945c16.377-4.843,33.621-6.7,50.364-5.953c-27.735-3.628-57.366-1.888-85.119,6.331
					c-70.983,21.007-102.64,75.915-70.723,122.64c31.922,46.718,115.336,67.562,186.31,46.547
					c70.98-21.015,102.639-75.92,70.725-122.646C1046.808,792.281,1041.072,786.186,1034.564,780.589z"/>
			</g>
			<g>
				<path fill="#AB3687" d="M1143.553,658.101c35.46,51.907,0.295,112.897-78.557,136.243
					c-78.848,23.336-171.511,0.188-206.972-51.714c-35.47-51.903-0.293-112.899,78.556-136.244
					C1015.431,583.042,1108.094,606.197,1143.553,658.101z"/>
				<path opacity="0.25" fill="#AB3687" d="M1124.872,637.675c1.991,2.272,3.832,4.628,5.502,7.071
					c26.583,38.912,0.214,84.647-58.901,102.141c-59.115,17.504-128.591,0.146-155.174-38.767
					c-26.581-38.914-0.215-84.644,58.9-102.146c18.183-5.382,37.345-7.44,55.946-6.612c-30.818-4.032-63.733-2.101-94.565,7.025
					c-78.849,23.344-114.025,84.34-78.556,136.244c35.461,51.902,128.124,75.05,206.972,51.714
					c78.852-23.346,114.017-84.336,78.557-136.243C1138.473,650.656,1132.097,643.88,1124.872,637.675z"/>
			</g>
			<path fill="#53A246" d="M702.906,514.628c0,0-73.406-106.205-41.054-183.379c21.176-50.515,71.692-77.083,104.081-89.407
				c15.556-5.922,35.413-2.701,45.238,7.203l0,0c9.982,10.063,5.972,23.416-8.814,30.46c-33.638,16.018-86.137,48.288-87.133,93.981
				c-1.468,67.323,17.033,137.719,14.052,140.612C726.294,516.995,702.906,514.628,702.906,514.628z"/>
			<path opacity="0.25" fill="#53A246" d="M674.983,383.405c1.116-63.756,72.554-114.279,122.988-142.058
				c-9.86-3.28-21.85-3.385-32.038,0.495c-32.389,12.324-82.905,38.892-104.081,89.407
				c-32.353,77.174,41.054,183.379,41.054,183.379s8.304,0.826,15.653,0.89C698.129,486.644,673.986,440.317,674.983,383.405z"/>
			<g>
				<path fill="#AB3687" d="M654.338,494.343c29.597,43.318,0.24,94.228-65.565,113.708c-65.809,19.483-143.15,0.158-172.743-43.161
					c-29.597-43.316-0.242-94.228,65.566-113.706C547.404,431.701,624.744,451.026,654.338,494.343z"/>
				<path opacity="0.25" fill="#AB3687" d="M638.742,477.298c1.666,1.895,3.201,3.861,4.594,5.9
					c22.191,32.477,0.179,70.644-49.157,85.25c-49.336,14.607-107.317,0.12-129.507-32.359
					c-22.192-32.476-0.184-70.644,49.158-85.249c15.176-4.494,31.169-6.21,46.689-5.522c-25.718-3.362-53.189-1.752-78.921,5.867
					c-65.808,19.479-95.164,70.39-65.566,113.706c29.593,43.319,106.934,62.645,172.743,43.161
					c65.806-19.481,95.163-70.39,65.565-113.708C650.096,488.134,644.774,482.479,638.742,477.298z"/>
			</g>
			<g>
				<path fill="#AB3687" d="M853.621,503.311c29.596,43.319,0.243,94.229-65.569,113.71c-65.809,19.48-143.149,0.156-172.742-43.162
					c-29.596-43.318-0.242-94.227,65.566-113.708C746.688,440.668,824.02,459.993,853.621,503.311z"/>
				<path opacity="0.25" fill="#AB3687" d="M838.023,486.264c1.67,1.896,3.205,3.862,4.597,5.902
					c22.184,32.476,0.179,70.646-49.157,85.249c-49.345,14.607-107.322,0.119-129.514-32.358
					c-22.19-32.476-0.178-70.642,49.16-85.248c15.174-4.495,31.167-6.211,46.69-5.52c-25.718-3.366-53.188-1.755-78.922,5.862
					c-65.808,19.482-95.163,70.39-65.566,113.708c29.593,43.317,106.933,62.642,172.742,43.162
					c65.813-19.481,95.165-70.392,65.569-113.71C849.382,497.1,844.059,491.445,838.023,486.264z"/>
			</g>
			<g>
				<path fill="#AB3687" d="M1033.822,511.901c29.597,43.318,0.244,94.228-65.568,113.709
					c-65.804,19.482-143.145,0.158-172.744-43.161c-29.594-43.317-0.244-94.228,65.57-113.707
					C926.881,449.26,1004.221,468.584,1033.822,511.901z"/>
				<path opacity="0.25" fill="#AB3687" d="M1018.226,494.853c1.67,1.896,3.204,3.864,4.597,5.903
					c22.184,32.476,0.179,70.643-49.157,85.25c-49.337,14.605-107.326,0.117-129.507-32.358
					c-22.192-32.478-0.188-70.645,49.148-85.25c15.179-4.494,31.171-6.212,46.692-5.522c-25.717-3.366-53.185-1.755-78.919,5.867
					c-65.814,19.479-95.164,70.39-65.57,113.707c29.6,43.319,106.94,62.644,172.744,43.161
					c65.813-19.482,95.165-70.392,65.568-113.709C1029.576,505.688,1024.26,500.034,1018.226,494.853z"/>
			</g>
			<g>
				<path fill="#AB3687" d="M696.379,911.389c29.7,43.468,0.239,94.559-65.799,114.111c-66.043,19.543-143.657,0.158-173.357-43.316
					c-29.701-43.473-0.242-94.561,65.805-114.11C589.066,848.522,666.678,867.915,696.379,911.389z"/>
				<path opacity="0.25" fill="#AB3687" d="M680.73,894.275c1.67,1.901,3.209,3.877,4.607,5.927
					c22.267,32.594,0.183,70.896-49.332,85.554c-49.512,14.654-107.702,0.119-129.967-32.477
					c-22.268-32.592-0.18-70.895,49.331-85.553c15.229-4.509,31.282-6.231,46.854-5.537c-25.806-3.375-53.373-1.763-79.196,5.884
					c-66.046,19.55-95.506,70.638-65.805,114.11c29.7,43.475,107.313,62.859,173.357,43.316
					c66.039-19.553,95.5-70.644,65.799-114.111C692.118,905.15,686.783,899.479,680.73,894.275z"/>
			</g>
			<g>
				<path fill="#AB3687" d="M930.568,914.479c29.702,43.474,0.244,94.562-65.803,114.11
					c-66.037,19.551-143.652,0.158-173.353-43.314c-29.7-43.469-0.24-94.553,65.804-114.105
					C823.252,851.62,900.871,871.005,930.568,914.479z"/>
				<path opacity="0.25" fill="#AB3687" d="M914.915,897.376c1.67,1.898,3.215,3.872,4.609,5.917
					c22.271,32.593,0.188,70.896-49.327,85.557c-49.518,14.654-107.705,0.117-129.973-32.475
					c-22.263-32.597-0.18-70.896,49.336-85.557c15.232-4.503,31.28-6.232,46.854-5.537c-25.806-3.375-53.373-1.758-79.198,5.889
					c-66.044,19.553-95.504,70.637-65.804,114.105c29.7,43.473,107.315,62.865,173.353,43.314
					c66.047-19.549,95.505-70.637,65.803-114.11C926.31,908.248,920.971,902.57,914.915,897.376z"/>
			</g>
			<g>
				<path fill="#AB3687" d="M606.675,780.086c31.919,46.717,0.259,101.631-70.718,122.637
					c-70.978,21.014-154.391,0.178-186.315-46.547c-31.918-46.718-0.255-101.626,70.719-122.64
					C491.339,712.521,574.756,733.366,606.675,780.086z"/>
				<path opacity="0.25" fill="#AB3687" d="M589.851,761.698c1.796,2.045,3.452,4.166,4.957,6.372
					c23.932,35.021,0.193,76.189-53.021,91.942c-53.212,15.753-115.746,0.129-139.679-34.904
					c-23.93-35.027-0.196-76.19,53.016-91.942c16.368-4.843,33.621-6.7,50.361-5.957c-27.735-3.626-57.366-1.892-85.124,6.326
					c-70.974,21.014-102.637,75.917-70.719,122.64c31.924,46.725,115.337,67.561,186.315,46.547
					c70.978-21.006,102.637-75.92,70.718-122.637C602.094,773.382,596.357,767.288,589.851,761.698z"/>
			</g>
			<g>
				<path fill="#AB3687" d="M833.459,793.239c31.916,46.72,0.249,101.626-70.723,122.64c-70.975,21.009-154.392,0.17-186.311-46.555
					c-31.918-46.718-0.259-101.626,70.718-122.638C718.123,725.678,801.534,746.519,833.459,793.239z"/>
				<path opacity="0.25" fill="#AB3687" d="M816.639,774.853c1.791,2.045,3.443,4.161,4.952,6.36
					c23.933,35.033,0.188,76.198-53.025,91.948c-53.207,15.756-115.747,0.126-139.678-34.896
					c-23.931-35.033-0.192-76.198,53.02-91.945c16.368-4.849,33.616-6.701,50.35-5.959c-27.731-3.627-57.359-1.894-85.114,6.324
					c-70.978,21.012-102.636,75.92-70.718,122.638c31.919,46.725,115.336,67.563,186.311,46.555
					c70.972-21.014,102.639-75.92,70.723-122.64C828.877,786.539,823.146,780.438,816.639,774.853z"/>
			</g>
			<g>
				<path fill="#AB3687" d="M991.292,649.628c35.459,51.904,0.294,112.899-78.557,136.241
					c-78.849,23.34-171.513,0.187-206.977-51.716c-35.46-51.899-0.285-112.896,78.561-136.238
					C863.169,574.572,955.832,597.724,991.292,649.628z"/>
				<path opacity="0.25" fill="#AB3687" d="M972.61,629.2c1.991,2.274,3.832,4.629,5.502,7.073
					c26.583,38.912,0.214,84.644-58.901,102.143c-59.115,17.5-128.587,0.147-155.172-38.769
					c-26.583-38.914-0.213-84.644,58.899-102.143c18.182-5.386,37.345-7.444,55.945-6.616c-30.814-4.032-63.729-2.102-94.564,7.027
					c-78.846,23.342-114.021,84.338-78.561,136.238c35.464,51.903,128.128,75.056,206.977,51.716
					c78.851-23.342,114.016-84.337,78.557-136.241C986.21,642.187,979.835,635.408,972.61,629.2z"/>
			</g>
			<g>
				<path fill="#AB3687" d="M571.007,618.351c35.458,51.904,0.285,112.9-78.561,136.241
					c-78.849,23.341-171.519,0.187-206.974-51.712c-35.465-51.902-0.29-112.902,78.561-136.242
					C442.878,543.292,535.546,566.446,571.007,618.351z"/>
				<path opacity="0.25" fill="#AB3687" d="M552.321,597.924c1.99,2.272,3.835,4.63,5.505,7.071
					c26.584,38.912,0.213,84.646-58.902,102.145c-59.113,17.504-128.588,0.141-155.171-38.769
					c-26.588-38.914-0.22-84.646,58.896-102.148c18.187-5.381,37.349-7.441,55.941-6.612c-30.813-4.033-63.724-2.103-94.556,7.027
					c-78.851,23.339-114.026,84.339-78.565,136.242c35.459,51.899,128.129,75.053,206.978,51.712
					c78.845-23.341,114.019-84.337,78.561-136.241C565.921,610.908,559.549,604.131,552.321,597.924z"/>
			</g>
			<g>
				<path fill="#AB3687" d="M797.731,636.03c35.461,51.901,0.284,112.901-78.564,136.236
					c-78.845,23.347-171.513,0.196-206.973-51.709c-35.458-51.901-0.285-112.898,78.565-136.24
					C669.607,560.971,762.271,584.125,797.731,636.03z"/>
				<path opacity="0.25" fill="#AB3687" d="M779.04,615.605c2.003,2.268,3.841,4.626,5.511,7.067
					c26.586,38.914,0.214,84.643-58.902,102.146c-59.113,17.499-128.586,0.141-155.169-38.771
					c-26.589-38.912-0.219-84.646,58.895-102.145c18.186-5.383,37.349-7.444,55.941-6.616c-30.812-4.031-63.722-2.101-94.556,7.028
					c-78.85,23.341-114.023,84.338-78.565,136.24c35.46,51.906,128.128,75.056,206.973,51.709
					c78.849-23.334,114.025-84.334,78.564-136.236C792.651,628.587,786.273,621.811,779.04,615.605z"/>
			</g>
		</g>
		<path opacity="0.1" fill="#FFFFFF" d="M610.243,483.513c1.986,7.451-15.69,8.815-17.663,1.423
			c-1.777-6.677-9.239-11.754-18.45-13.881c-2.007-0.149-4.017-0.304-6.023-0.455c-1.07,0.168-2.246,0.23-3.566,0.085l-6.082-0.667
			c-0.504-0.044-1.009-0.067-1.464-0.161c-1-0.113-1.997-0.222-2.995-0.33c-5.806-0.441-7.971-3.65-7.242-6.59
			c0.53-2.957,3.958-5.643,9.692-5.01c0.934,0.07,1.866,0.141,2.8,0.211c8.613-2.045,17.628-0.909,25.049,2.807
			c0.164,0.082,0.235,0.19,0.387,0.277C597.715,465.407,607.59,473.577,610.243,483.513z M764.602,466.097
			c-25.886,1.135-47.672,10.947-59.807,25.896c-5.394,6.649,10.97,11.248,16.336,4.639c9.253-11.396,26.235-18.062,45.631-18.911
			C778.185,477.218,776.016,465.594,764.602,466.097z M909.844,477.835c-26.513,8.847-42.131,27.231-38.539,46.798
			c1.374,7.479,19.037,6.081,17.663-1.422c-2.572-14.013,8.124-28.048,27.448-34.496
			C926.552,485.332,920.069,474.423,909.844,477.835z M875.374,600.713c-11.171-1.62-13.591,9.984-2.446,11.597
			c19.752,2.865,35.086,13.218,38.997,26.275c2.206,7.348,19.887,5.997,17.663-1.421
			C924.033,618.653,903.353,604.769,875.374,600.713z M712.93,610.126c-38.153-3.384-73.469,8.626-92.467,30.47
			c-5.68,6.528,10.703,11.115,16.332,4.638c15.016-17.264,44.014-26.139,73.684-23.506
			C721.806,622.729,724.311,611.136,712.93,610.126z M416.941,583.272c-32.59,13.608-41.559,42.612-22.067,64.071
			c5.886,6.478,20.156-0.525,14.329-6.941c-14.778-16.271-5.519-37.759,18.283-47.697
			C437.179,588.658,426.562,579.254,416.941,583.272z M1069.998,621.635c-10.557-2.909-17.627,7.835-7.045,10.753
			c13.574,3.744,21.572,11.685,22.228,21.301c0.515,7.527,18.171,6.082,17.661-1.424
			C1101.915,638.715,1088.92,626.854,1069.998,621.635z M943.741,853.149c-24.645,0.658-44.256-13.321-44.335-29.074
			c-0.038-7.513-17.701-6.042-17.654,1.424c0.114,22.546,30.647,40.169,64.151,39.277
			C957.331,864.47,955.134,852.841,943.741,853.149z M691.024,838.535c-18.367-4.849-31.19-16.069-32.793-29.59
			c-0.894-7.511-18.552-6.091-17.659,1.422c2.549,21.498,27.775,38.92,60.075,42.017c6.961,0.671,11.5-3.867,9.492-7.96
			c-0.983-1.997-1.969-3.996-2.952-6.005C704.443,832.834,693.941,834.267,691.024,838.535z M466.51,832.805
			c-21.927-2.451-37.135-18.345-30.013-32.416c3.591-7.102-12.712-11.799-16.333-4.639c-10.813,21.367,9.874,44.854,43.894,48.65
			C475.341,845.672,477.814,834.067,466.51,832.805z M596.191,958.129c-20.461,0.742-39.691-11.081-39.173-24.722
			c0.281-7.436-17.337-9.158-17.622-1.61c-0.813,21.478,26.113,39.146,58.958,37.959
			C609.784,969.341,607.599,957.719,596.191,958.129z M726.604,1052.608c-21.248,1.474-42.357-5.695-52.118-18.345
			c-5.147-6.672-21.721-2.406-16.528,4.326c13.447,17.422,41.09,27.703,70.808,25.641
			C740.15,1063.443,738.01,1051.814,726.604,1052.608z"/>
	</g>
</g>
</svg>
